<svg xmlns="http://www.w3.org/2000/svg" viewBox="0 0 30 36"><title>logo-csv-vectoriser</title><path d="M33,39H17a1,1,0,0,1-1-1V35a1,1,0,0,1,2,0v2H32V35a1,1,0,0,1,2,0v3A1,1,0,0,1,33,39Z" transform="translate(-10 -7)"/><path d="M25,33.5a1,1,0,0,1-1-1V20a1,1,0,0,1,2,0V32.5A1,1,0,0,1,25,33.5Z" transform="translate(-10 -7)"/><path d="M25,34.33a1,1,0,0,1-.71-.29l-2.83-2.83a1,1,0,0,1,1.42-1.42L25,31.91l2.12-2.12a1,1,0,0,1,1.42,1.42L25.71,34A1,1,0,0,1,25,34.33Z" transform="translate(-10 -7)"/><path d="M39,43H11a1,1,0,0,1-1-1V8a1,1,0,0,1,1-1H31a1,1,0,0,1,.75.34l8,9A1,1,0,0,1,40,17V42A1,1,0,0,1,39,43ZM12,41H38V17.38L30.55,9H12Z" transform="translate(-10 -7)"/><path d="M39,18H31a1,1,0,0,1-1-1V8a1,1,0,0,1,2,0v8h7a1,1,0,0,1,0,2Z" transform="translate(-10 -7)"/><path d="M18.77,22h-4a1,1,0,1,1,0-2h4a1,1,0,0,1,0,2Z" transform="translate(-10 -7)"/><path d="M18.77,26.5h-4a1,1,0,1,1,0-2h4a1,1,0,0,1,0,2Z" transform="translate(-10 -7)"/><path d="M18.77,13h-4a1,1,0,0,1,0-2h4a1,1,0,0,1,0,2Z" transform="translate(-10 -7)"/><path d="M18.77,17.5h-4a1,1,0,0,1,0-2h4a1,1,0,0,1,0,2Z" transform="translate(-10 -7)"/><path d="M27,13H23a1,1,0,0,1,0-2h4a1,1,0,0,1,0,2Z" transform="translate(-10 -7)"/><path d="M27,17.5H23a1,1,0,0,1,0-2h4a1,1,0,0,1,0,2Z" transform="translate(-10 -7)"/></svg>